<mxfile host="Electron" modified="2024-06-25T09:19:14.349Z" agent="Mozilla/5.0 (Windows NT 10.0; Win64; x64) AppleWebKit/537.36 (KHTML, like Gecko) draw.io/24.5.3 Chrome/124.0.6367.207 Electron/30.0.6 Safari/537.36" etag="1SznT4nxieonedflyPIE" version="24.5.3" type="device">
  <diagram name="Seite-1" id="HLHpH_ou4ANuys2L_7Qh">
    <mxGraphModel dx="680" dy="408" grid="1" gridSize="10" guides="1" tooltips="1" connect="1" arrows="1" fold="1" page="1" pageScale="1" pageWidth="827" pageHeight="1169" math="0" shadow="0">
      <root>
        <mxCell id="0" />
        <mxCell id="1" parent="0" />
        <mxCell id="vn1dnEoQ3g9eWZXEqQMI-1" value="" style="endArrow=none;html=1;rounded=0;" parent="1" edge="1">
          <mxGeometry width="50" height="50" relative="1" as="geometry">
            <mxPoint x="280" y="650" as="sourcePoint" />
            <mxPoint x="280" y="640" as="targetPoint" />
          </mxGeometry>
        </mxCell>
        <mxCell id="vn1dnEoQ3g9eWZXEqQMI-3" value="" style="endArrow=classic;html=1;rounded=0;" parent="1" edge="1">
          <mxGeometry width="50" height="50" relative="1" as="geometry">
            <mxPoint x="200" y="640" as="sourcePoint" />
            <mxPoint x="540" y="640" as="targetPoint" />
          </mxGeometry>
        </mxCell>
        <mxCell id="vn1dnEoQ3g9eWZXEqQMI-4" value="" style="endArrow=classic;html=1;rounded=0;" parent="1" edge="1">
          <mxGeometry width="50" height="50" relative="1" as="geometry">
            <mxPoint x="200" y="650" as="sourcePoint" />
            <mxPoint x="200" y="360" as="targetPoint" />
          </mxGeometry>
        </mxCell>
        <mxCell id="vn1dnEoQ3g9eWZXEqQMI-8" value="" style="endArrow=none;html=1;rounded=0;" parent="1" edge="1">
          <mxGeometry width="50" height="50" relative="1" as="geometry">
            <mxPoint x="360" y="650" as="sourcePoint" />
            <mxPoint x="360" y="640" as="targetPoint" />
          </mxGeometry>
        </mxCell>
        <mxCell id="vn1dnEoQ3g9eWZXEqQMI-9" value="Entwicklung" style="text;html=1;align=center;verticalAlign=middle;whiteSpace=wrap;rounded=0;" parent="1" vertex="1">
          <mxGeometry x="290" y="644" width="60" height="30" as="geometry" />
        </mxCell>
        <mxCell id="vn1dnEoQ3g9eWZXEqQMI-11" value="Konzept" style="text;html=1;align=center;verticalAlign=middle;whiteSpace=wrap;rounded=0;" parent="1" vertex="1">
          <mxGeometry x="210" y="644" width="60" height="30" as="geometry" />
        </mxCell>
        <mxCell id="vn1dnEoQ3g9eWZXEqQMI-14" value="Phase im PEP" style="text;html=1;align=center;verticalAlign=middle;whiteSpace=wrap;rounded=0;" parent="1" vertex="1">
          <mxGeometry x="540" y="625" width="60" height="30" as="geometry" />
        </mxCell>
        <mxCell id="vn1dnEoQ3g9eWZXEqQMI-16" value="" style="endArrow=none;html=1;rounded=0;" parent="1" edge="1">
          <mxGeometry width="50" height="50" relative="1" as="geometry">
            <mxPoint x="440" y="650" as="sourcePoint" />
            <mxPoint x="440" y="640" as="targetPoint" />
          </mxGeometry>
        </mxCell>
        <mxCell id="vn1dnEoQ3g9eWZXEqQMI-17" value="" style="endArrow=none;html=1;rounded=0;" parent="1" edge="1">
          <mxGeometry width="50" height="50" relative="1" as="geometry">
            <mxPoint x="520" y="650" as="sourcePoint" />
            <mxPoint x="520" y="640" as="targetPoint" />
          </mxGeometry>
        </mxCell>
        <mxCell id="vn1dnEoQ3g9eWZXEqQMI-19" value="Prototyp" style="text;html=1;align=center;verticalAlign=middle;whiteSpace=wrap;rounded=0;" parent="1" vertex="1">
          <mxGeometry x="370" y="644" width="60" height="30" as="geometry" />
        </mxCell>
        <mxCell id="vn1dnEoQ3g9eWZXEqQMI-24" value="Fehlerkosten" style="text;html=1;align=center;verticalAlign=middle;whiteSpace=wrap;rounded=0;rotation=0;" parent="1" vertex="1">
          <mxGeometry x="140" y="334" width="130" height="30" as="geometry" />
        </mxCell>
        <mxCell id="vn1dnEoQ3g9eWZXEqQMI-41" value="" style="endArrow=none;html=1;rounded=0;" parent="1" edge="1">
          <mxGeometry width="50" height="50" relative="1" as="geometry">
            <mxPoint x="190" y="640" as="sourcePoint" />
            <mxPoint x="200" y="640" as="targetPoint" />
          </mxGeometry>
        </mxCell>
        <mxCell id="hARTjh3Sy_JEfjSnx1Wy-10" value="Produktion" style="text;html=1;align=center;verticalAlign=middle;whiteSpace=wrap;rounded=0;" vertex="1" parent="1">
          <mxGeometry x="450" y="644" width="60" height="30" as="geometry" />
        </mxCell>
        <mxCell id="hARTjh3Sy_JEfjSnx1Wy-11" value="1" style="text;html=1;align=center;verticalAlign=middle;whiteSpace=wrap;rounded=0;rotation=0;" vertex="1" parent="1">
          <mxGeometry x="220" y="595" width="40" height="30" as="geometry" />
        </mxCell>
        <mxCell id="hARTjh3Sy_JEfjSnx1Wy-12" value="10" style="text;html=1;align=center;verticalAlign=middle;whiteSpace=wrap;rounded=0;rotation=0;" vertex="1" parent="1">
          <mxGeometry x="300" y="577" width="40" height="30" as="geometry" />
        </mxCell>
        <mxCell id="hARTjh3Sy_JEfjSnx1Wy-13" value="100" style="text;html=1;align=center;verticalAlign=middle;whiteSpace=wrap;rounded=0;rotation=0;" vertex="1" parent="1">
          <mxGeometry x="380" y="538" width="40" height="30" as="geometry" />
        </mxCell>
        <mxCell id="hARTjh3Sy_JEfjSnx1Wy-14" value="1000" style="text;html=1;align=center;verticalAlign=middle;whiteSpace=wrap;rounded=0;rotation=0;" vertex="1" parent="1">
          <mxGeometry x="460" y="410" width="40" height="30" as="geometry" />
        </mxCell>
        <mxCell id="hARTjh3Sy_JEfjSnx1Wy-15" value="" style="endArrow=none;dashed=1;html=1;strokeWidth=1;rounded=0;fillColor=#f5f5f5;strokeColor=#C4C4C4;jumpSize=6;" edge="1" parent="1">
          <mxGeometry width="50" height="50" relative="1" as="geometry">
            <mxPoint x="280" y="640" as="sourcePoint" />
            <mxPoint x="280" y="360" as="targetPoint" />
          </mxGeometry>
        </mxCell>
        <mxCell id="hARTjh3Sy_JEfjSnx1Wy-16" value="" style="endArrow=none;dashed=1;html=1;strokeWidth=1;rounded=0;fillColor=#f5f5f5;strokeColor=#C4C4C4;jumpSize=6;" edge="1" parent="1">
          <mxGeometry width="50" height="50" relative="1" as="geometry">
            <mxPoint x="360" y="640" as="sourcePoint" />
            <mxPoint x="360" y="360" as="targetPoint" />
          </mxGeometry>
        </mxCell>
        <mxCell id="hARTjh3Sy_JEfjSnx1Wy-17" value="" style="endArrow=none;dashed=1;html=1;strokeWidth=1;rounded=0;fillColor=#f5f5f5;strokeColor=#C4C4C4;jumpSize=6;" edge="1" parent="1">
          <mxGeometry width="50" height="50" relative="1" as="geometry">
            <mxPoint x="440" y="640" as="sourcePoint" />
            <mxPoint x="440" y="360" as="targetPoint" />
          </mxGeometry>
        </mxCell>
        <mxCell id="hARTjh3Sy_JEfjSnx1Wy-18" value="" style="endArrow=none;dashed=1;html=1;strokeWidth=1;rounded=0;fillColor=#f5f5f5;strokeColor=#C4C4C4;jumpSize=6;" edge="1" parent="1">
          <mxGeometry width="50" height="50" relative="1" as="geometry">
            <mxPoint x="520" y="640" as="sourcePoint" />
            <mxPoint x="520" y="360" as="targetPoint" />
          </mxGeometry>
        </mxCell>
        <mxCell id="hARTjh3Sy_JEfjSnx1Wy-9" value="" style="curved=1;endArrow=classic;html=1;rounded=0;fillColor=#f8cecc;strokeColor=#b85450;strokeWidth=2;" edge="1" parent="1">
          <mxGeometry width="50" height="50" relative="1" as="geometry">
            <mxPoint x="210" y="625" as="sourcePoint" />
            <mxPoint x="510" y="360" as="targetPoint" />
            <Array as="points">
              <mxPoint x="320" y="610" />
              <mxPoint x="420" y="570" />
              <mxPoint x="490" y="480" />
            </Array>
          </mxGeometry>
        </mxCell>
      </root>
    </mxGraphModel>
  </diagram>
</mxfile>
